<svg width="224" height="40" viewBox="0 0 224 40" fill="none" xmlns="http://www.w3.org/2000/svg">
<g clip-path="url(#clip0_162_445)">
<path d="M36.3899 4.12105L41.8624 4.12911L48.9496 28.2479C50.1043 24.4338 51.2075 20.4057 52.2997 16.5643C53.4777 12.4114 54.6777 8.2648 55.8984 4.12463L60.9879 4.12951C61.6971 6.87651 62.6039 9.86033 63.3848 12.5972C64.8703 17.8496 66.3888 23.0926 67.9389 28.326L73.0549 10.8453C73.653 8.78507 74.5424 6.1295 75.0217 4.12528L80.4212 4.12866C80.0001 5.65637 79.4595 7.27707 78.9809 8.79528L70.6503 35.159L65.389 35.1566C64.9388 33.927 64.5196 32.4963 64.1315 31.2347C63.4197 28.9381 62.7325 26.6337 62.0711 24.3218C60.8562 20.1402 59.5935 16.0082 58.4361 11.8078L53.5832 28.2972C52.9198 30.546 52.1554 32.9112 51.5457 35.1507L46.2287 35.1553C44.9771 31.5044 43.8035 27.633 42.6435 23.9471L36.3899 4.12105Z" fill="#333333"/>
<path fill-rule="evenodd" clip-rule="evenodd" d="M96.4559 4.12332C99.6536 11.0567 102.778 18.2512 105.882 25.2357L108.777 31.7039C109.209 32.6622 109.88 34.2783 110.384 35.1499L104.759 35.1602C103.665 32.7667 102.594 30.3617 101.549 27.9456C99.8958 27.9173 98.1791 27.9381 96.5204 27.9376L86.0294 27.9303C85.7937 28.6048 85.3144 29.6446 85.0166 30.3368C84.3178 31.9362 83.6312 33.5413 82.9582 35.1518L77.3481 35.1538L85.4301 17.069C87.3244 12.8266 89.3944 8.40123 91.1828 4.13087L96.4559 4.12332ZM93.7328 10.0117C91.8746 14.4348 89.9854 18.8449 88.0665 23.2413L93.9369 23.2501L99.5522 23.2504C98.9819 21.932 94.015 10.246 93.7328 10.0117Z" fill="#333333"/>
<path d="M30.5799 10.2347L30.7286 10.2553C30.7497 10.2881 30.7794 10.3322 30.7906 10.3698C31.5915 13.0474 31.6485 16.6318 30.408 19.1647C29.1835 21.665 27.3341 22.8632 24.8734 23.7443C25.5046 24.7448 26.5234 26.1206 27.2139 27.1279L32.7286 35.1574L26.4174 35.1553C25.8465 34.4857 24.5328 32.4373 23.9894 31.6371C22.401 29.3289 20.8301 27.0086 19.2765 24.6765L12.1922 24.6784L12.1943 30.759L12.1955 35.1549C10.4903 35.1328 8.74214 35.1518 7.03359 35.1512L7.02545 10.6955L12.1977 12.6179L12.1933 20.0158L16.58 20.0236C20.3441 20.0275 25.7273 20.3231 26.0978 15.1181C26.1772 14.0022 26.0705 13.1336 25.7259 12.0688C27.2238 11.5796 29.0925 10.8121 30.5799 10.2347Z" fill="#333333"/>
<path d="M18.1831 0.0410995C19.6223 0.415543 22.4644 1.55557 23.9316 2.09931L34.799 6.12842C35.3646 6.33859 35.9263 6.55915 36.4838 6.79006L35.1393 7.29173C35.0731 7.95928 35.1004 9.05581 35.1008 9.75652C35.1101 11.3223 35.1095 12.8881 35.0991 14.4538C35.9598 15.0676 35.9409 15.7408 35.2366 16.4777C35.4654 17.647 35.6725 18.8204 35.8579 19.9975C35.0163 19.9991 34.1127 20.0177 33.2762 20.0004C33.4871 18.8461 33.6933 17.5611 33.9347 16.4224C33.2656 15.7094 33.1939 15.0482 34.0334 14.4351C34.0334 13.8155 34.0852 7.93952 33.9697 7.73033C28.7306 9.60742 23.4454 11.6135 18.2236 13.5596C12.2659 11.2382 6.081 9.06147 0.0738525 6.7896C0.585842 6.55077 1.5431 6.22271 2.09468 6.01554L5.96719 4.56541L18.1831 0.0410995Z" fill="#333333"/>
<path d="M34.7987 6.12827C35.3643 6.33843 35.926 6.55899 36.4836 6.7899L35.139 7.29157C35.2554 6.55282 34.936 6.37686 34.2654 6.29564C34.5808 6.25487 34.6063 6.30618 34.7987 6.12827Z" fill="#333333"/>
</g>
<path fill-rule="evenodd" clip-rule="evenodd" d="M173.617 18.5837C173.655 24.0115 173.657 29.4396 173.626 34.8676C172.904 34.8813 172.182 34.8874 171.461 34.8856L171.454 33.1355C169.784 35.3778 166.624 35.4469 164.273 34.2826C158.978 31.1052 161.251 22.4542 167.737 23.0487C169.302 23.1921 170.398 23.6925 171.437 24.8539L171.426 18.5852L173.617 18.5837ZM168.01 33.1261C173.22 32.0297 172.145 24.6236 167.203 24.918C164.623 25.2789 163.3 27.2713 163.645 29.728C163.787 30.7953 164.362 31.7608 165.241 32.4049C166.071 33.0066 166.995 33.1998 168.01 33.1261Z" fill="#333333"/>
<path fill-rule="evenodd" clip-rule="evenodd" d="M131.138 25.8256C132.553 28.8239 133.93 31.8395 135.268 34.8715C134.474 34.8841 133.679 34.8839 132.885 34.8712C132.318 33.6292 131.716 32.3554 131.198 31.0963L128.327 31.0945L122.889 31.1019C122.333 32.3542 121.784 33.6099 121.244 34.8691L118.853 34.8694C120.196 31.6557 121.846 28.3155 123.293 25.1282C124.103 23.3426 125.049 21.1025 125.917 19.4136L128.223 19.4058L131.138 25.8256ZM127.007 21.8707C126.027 23.7934 125.273 25.9498 124.339 27.9088C124.143 28.3194 123.942 28.7947 123.803 29.2272L127.274 29.2323C128.292 29.2332 129.354 29.2183 130.368 29.2372C130.018 28.4863 127.122 21.9794 127.007 21.8707Z" fill="#333333"/>
<path d="M195.303 23.0609C197.394 22.9317 198.879 23.2769 200.166 25.0576C200.316 24.8572 200.482 24.6675 200.661 24.49C202.449 22.7255 206.171 22.4582 208.034 24.2273C209.716 25.8236 209.426 28.6484 209.421 30.7668L209.415 34.8858C208.686 34.8863 207.957 34.8824 207.227 34.8739L207.231 34.6247L207.241 30.8048C207.242 29.8118 207.279 28.7884 207.175 27.8017C207.001 26.1707 205.913 24.9172 204.165 24.9168C203.292 24.9101 202.454 25.2443 201.834 25.8456C200.551 27.1112 200.787 29.1915 200.796 30.8613L200.809 34.8965L198.59 34.8883L198.589 30.3762C198.59 29.5468 198.596 28.7207 198.556 27.8872C198.374 24.0613 193.248 23.9684 192.424 27.4904C192.17 28.5781 192.258 29.7526 192.26 30.8824L192.272 34.8584C191.533 34.8757 190.793 34.8774 190.054 34.8636C190.111 31.0101 190.063 27.0319 190.06 23.1679L192.206 23.1735V24.8072C193.089 23.7248 193.941 23.3056 195.303 23.0609Z" fill="#333333"/>
<path fill-rule="evenodd" clip-rule="evenodd" d="M181.203 23.0673C182.846 22.8413 184.796 23.3529 185.98 24.5219C187.511 26.0357 187.739 27.6848 187.756 29.7007C184.643 29.6985 181.219 29.6297 178.137 29.7436C178.941 32.4623 181.024 33.732 183.9 32.9026C184.33 32.7785 184.75 32.5054 185.118 32.255L185.75 31.7115C186.208 32.1866 186.601 32.5984 187.025 33.1068C185.021 35.412 180.783 35.6137 178.371 33.8678C177.109 32.96 176.268 31.5953 176.034 30.0762C175.486 26.5204 177.533 23.5779 181.203 23.0673ZM181.76 24.8596C179.621 25.0326 178.62 26.1757 178.151 28.138C179.454 28.1211 180.759 28.1112 182.062 28.1084L185.652 28.1433C185.062 26.0691 184.132 24.8744 181.76 24.8596Z" fill="#333333"/>
<path fill-rule="evenodd" clip-rule="evenodd" d="M153.397 23.0677C154.924 22.8944 156.883 23.1877 158.009 24.3024C159.533 25.812 159.269 28.1194 159.271 30.086L159.271 34.8543C158.586 34.8929 157.825 34.8787 157.133 34.8792L157.139 33.3787C156.826 33.7617 156.448 34.0881 156.021 34.3431C153.978 35.5576 150.589 35.2178 149.273 33.079C149.059 32.5641 148.896 32.061 148.907 31.4956C148.986 27.4007 154.296 28.03 157.088 28.0749C157.112 26.3731 156.449 25.1888 154.598 24.9304C152.791 24.6781 151.659 25.193 150.239 26.23C149.915 25.7534 149.59 25.113 149.312 24.597C150.484 23.6223 151.899 23.2171 153.397 23.0677ZM157.092 29.5608C156.172 29.5549 155.251 29.5608 154.331 29.5786C153.384 29.6017 152.272 29.5925 151.563 30.3365C151.25 30.6611 151.089 31.0996 151.119 31.5458C151.201 32.8643 152.671 33.4359 153.846 33.3433C154.846 33.2747 155.741 32.9886 156.425 32.2225C157.159 31.4004 157.103 30.5709 157.092 29.5608Z" fill="#333333"/>
<path d="M221.051 23.1662L223.144 23.1764C222.904 23.9404 222.079 25.7855 221.74 26.5615C220.896 28.465 220.071 30.3764 219.264 32.2955C218.612 33.8549 217.96 35.4567 217.22 36.9746C215.91 39.6579 212.832 39.8723 210.557 38.2929C210.798 37.7629 211.173 37.1015 211.451 36.5758C212.188 37.2322 213.214 37.6844 214.198 37.289C215.192 36.8893 215.577 35.8209 215.961 34.9223C214.331 31.0236 212.495 27.0815 210.805 23.1794L213.058 23.1775C213.899 25.0256 214.723 26.8809 215.532 28.7432C215.954 29.7163 216.651 31.4281 217.135 32.3174C217.503 31.2907 217.99 30.298 218.417 29.2914C219.276 27.2416 220.154 25.1998 221.051 23.1662Z" fill="#333333"/>
<path d="M141.431 23.087C143.984 22.8487 145.569 23.5192 147.141 25.45C146.553 25.8641 146.023 26.2316 145.409 26.6147C144.745 25.768 143.994 25.1392 142.867 24.9759C138.987 24.3882 136.873 28.6946 139.014 31.6137C140.361 33.4517 142.849 33.6147 144.624 32.3149C144.986 32.0314 145.16 31.783 145.422 31.4219C145.996 31.7529 146.562 32.0975 147.12 32.4556C146.998 32.6477 146.875 32.8306 146.741 33.015C144.88 35.566 140.605 35.5757 138.217 33.7821C135.591 31.8105 135.197 27.7972 137.21 25.2608C138.298 23.89 139.717 23.3039 141.431 23.087Z" fill="#333333"/>
<defs>
<clipPath id="clip0_162_445">
<rect width="112.271" height="35.4541" fill="white"/>
</clipPath>
</defs>
</svg>
